if (_typeface_js && _typeface_js.loadFace) _typeface_js.loadFace({"glyphs":{"0":{"ha":964,"x_min":-3,"x_max":876,"o":"m -3 972 l 182 1158 l 692 1158 l 876 972 l 876 185 l 692 0 l 182 0 l -3 185 l -3 972 m 558 860 l 522 897 l 353 897 l 315 860 l 315 297 l 353 261 l 522 261 l 558 297 l 558 860 z "},"1":{"ha":638,"x_min":-3,"x_max":576,"o":"m 142 758 l -3 758 l -3 942 l 213 1157 l 460 1157 l 460 261 l 576 261 l 576 0 l -3 0 l -3 261 l 142 261 l 142 758 z "},"2":{"ha":911,"x_min":-3,"x_max":831,"o":"m 464 300 l 831 300 l 831 0 l -3 0 l -3 269 l 513 785 l 513 860 l 475 897 l 353 897 l 315 860 l 315 743 l -3 743 l -3 972 l 182 1158 l 646 1158 l 831 972 l 831 667 l 464 300 z "},"3":{"ha":957,"x_min":-3,"x_max":876,"o":"m 378 713 l 522 713 l 558 749 l 558 860 l 522 897 l 353 897 l 315 860 l 315 781 l -3 781 l -3 972 l 182 1158 l 692 1158 l 876 972 l 876 629 l 828 579 l 876 529 l 876 185 l 692 0 l 182 0 l -3 185 l -3 354 l 315 354 l 315 299 l 353 261 l 522 261 l 558 297 l 558 408 l 522 446 l 378 446 l 378 713 z "},"4":{"ha":932,"x_min":8,"x_max":860,"o":"m 808 11 l 375 11 l 375 249 l 444 249 l 444 358 l 8 358 l 8 682 l 474 1146 l 739 1146 l 739 596 l 860 596 l 860 358 l 739 358 l 739 249 l 808 249 l 808 11 m 432 782 l 258 608 l 432 608 l 432 782 z "},"5":{"ha":957,"x_min":-3,"x_max":876,"o":"m 315 831 l 353 794 l 703 794 l 876 621 l 876 185 l 692 0 l 182 0 l -3 185 l -3 392 l 315 392 l 315 299 l 353 261 l 522 261 l 558 297 l 558 497 l 522 535 l 182 535 l -3 719 l -3 1158 l 876 1158 l 876 897 l 315 897 l 315 831 z "},"6":{"ha":957,"x_min":-3,"x_max":876,"o":"m 315 694 l 692 694 l 876 510 l 876 185 l 692 0 l 182 0 l -3 185 l -3 972 l 182 1158 l 692 1158 l 876 972 l 876 783 l 558 783 l 558 860 l 522 897 l 353 897 l 315 860 l 315 694 m 315 397 l 315 297 l 353 261 l 522 261 l 558 297 l 558 397 l 522 433 l 353 433 l 315 397 z "},"7":{"ha":915,"x_min":-3,"x_max":856,"o":"m 856 935 l 508 0 l 175 0 l 508 897 l 257 897 l 257 828 l -3 828 l -3 1158 l 856 1158 l 856 935 z "},"8":{"ha":978,"x_min":21,"x_max":897,"o":"m 825 579 l 897 506 l 897 185 l 711 0 l 206 0 l 21 185 l 21 506 l 93 579 l 21 651 l 21 972 l 206 1158 l 711 1158 l 897 972 l 897 651 l 825 579 m 390 447 l 354 411 l 354 297 l 390 261 l 526 261 l 564 297 l 564 411 l 526 447 l 390 447 m 390 897 l 354 860 l 354 747 l 390 710 l 526 710 l 564 747 l 564 860 l 526 897 l 390 897 z "},"9":{"ha":983,"x_min":-3,"x_max":903,"o":"m 585 463 l 183 463 l -3 649 l -3 972 l 182 1158 l 717 1158 l 903 972 l 903 185 l 717 0 l 182 0 l -3 185 l -3 372 l 315 372 l 315 299 l 353 261 l 547 261 l 585 297 l 585 463 m 353 897 l 315 860 l 315 761 l 353 724 l 547 724 l 585 761 l 585 860 l 547 897 l 353 897 z "},"\r":{"ha":397,"x_min":0,"x_max":0,"o":""}," ":{"ha":397,"x_min":0,"x_max":0,"o":""},"!":{"ha":396,"x_min":-3,"x_max":315,"o":"m 315 347 l -3 347 l -3 1157 l 315 1157 l 315 347 m 315 0 l -3 0 l -3 261 l 315 261 l 315 0 z "},"\"":{"ha":492,"x_min":-3,"x_max":431,"o":"m 182 828 l -3 828 l -3 1158 l 182 1158 l 182 828 m 431 828 l 246 828 l 246 1158 l 431 1158 l 431 828 z "},"#":{"ha":1119,"x_min":-3,"x_max":1039,"o":"m 576 440 l 460 440 l 460 278 l 206 278 l 206 440 l -3 440 l -3 649 l 206 649 l 206 788 l -3 788 l -3 996 l 206 996 l 206 1157 l 460 1157 l 460 996 l 576 996 l 576 1157 l 831 1157 l 831 996 l 1039 996 l 1039 788 l 831 788 l 831 649 l 1039 649 l 1039 440 l 831 440 l 831 278 l 576 278 l 576 440 m 576 788 l 460 788 l 460 649 l 576 649 l 576 788 z "},"$":{"ha":957,"x_min":-3,"x_max":876,"o":"m 272 1083 l 272 1157 l 424 1157 l 424 1083 l 458 1083 l 458 1157 l 608 1157 l 608 1083 l 692 1083 l 876 899 l 876 719 l 558 719 l 558 833 l 522 871 l 353 871 l 315 835 l 315 718 l 353 681 l 692 681 l 876 496 l 876 260 l 692 74 l 608 74 l 608 0 l 458 0 l 458 74 l 424 74 l 424 0 l 272 0 l 272 74 l 182 74 l -3 260 l -3 433 l 315 433 l 315 324 l 353 286 l 522 286 l 558 324 l 558 435 l 522 471 l 182 471 l -3 657 l -3 899 l 182 1083 l 272 1083 z "},"&":{"ha":957,"x_min":-3,"x_max":876,"o":"m 692 1083 l 876 899 l 876 706 l 558 706 l 558 785 l 522 822 l 353 822 l 315 786 l 315 733 l 353 696 l 496 696 l 496 461 l 353 461 l 315 425 l 315 372 l 353 335 l 522 335 l 558 372 l 558 428 l 876 428 l 876 260 l 692 74 l 568 74 l 568 0 l 307 0 l 307 74 l 182 74 l -3 260 l -3 529 l 47 579 l -3 629 l -3 899 l 182 1083 l 307 1083 l 307 1157 l 568 1157 l 568 1083 l 692 1083 z "},"'":{"ha":243,"x_min":-3,"x_max":182,"o":"m 182 828 l -3 828 l -3 1158 l 182 1158 l 182 828 z "},",":{"ha":396,"x_min":-3,"x_max":315,"o":"m -3 0 l -3 261 l 315 261 l 315 1 l 106 -210 l 106 0 l -3 0 z "},"-":{"ha":539,"x_min":-3,"x_max":454,"o":"m -3 449 l -3 710 l 454 710 l 454 449 l -3 449 z "},".":{"ha":376,"x_min":-3,"x_max":292,"o":"m 292 0 l -3 0 l -3 296 l 292 296 l 292 0 z "},"/":{"ha":914,"x_min":-3,"x_max":894,"o":"m -3 0 l 576 1157 l 894 1157 l 315 0 l -3 0 z "},":":{"ha":396,"x_min":-3,"x_max":315,"o":"m 315 0 l -3 0 l -3 261 l 315 261 l 315 0 m 315 665 l -3 665 l -3 926 l 315 926 l 315 665 z "},";":{"ha":396,"x_min":-3,"x_max":315,"o":"m 315 665 l -3 665 l -3 926 l 315 926 l 315 665 m -3 0 l -3 261 l 315 261 l 315 1 l 106 -210 l 106 0 l -3 0 z "},"?":{"ha":876,"x_min":-3,"x_max":796,"o":"m 222 317 l 222 513 l 481 771 l 481 838 l 443 874 l 353 874 l 315 838 l 315 743 l -3 743 l -3 972 l 182 1158 l 611 1158 l 796 974 l 796 664 l 571 439 l 571 317 l 222 317 m 569 0 l 222 0 l 222 261 l 571 261 l 569 0 z "},"A":{"ha":1213,"x_min":-3,"x_max":1151,"o":"m 886 1158 l 886 897 l 828 897 l 1082 261 l 1151 261 l 1151 0 l 707 0 l 707 261 l 744 261 l 728 313 l 421 313 l 403 261 l 440 261 l 440 0 l -3 0 l -3 261 l 67 261 l 321 897 l 271 897 l 271 1158 l 886 1158 m 500 535 l 647 535 l 574 718 l 500 535 z "},"B":{"ha":978,"x_min":-3,"x_max":899,"o":"m 899 524 l 899 185 l 714 0 l -3 0 l -3 261 l 67 261 l 67 897 l -3 897 l -3 1158 l 714 1158 l 899 972 l 899 676 l 822 600 l 899 524 m 581 432 l 543 468 l 385 468 l 385 261 l 543 261 l 581 297 l 581 432 m 581 860 l 543 897 l 385 897 l 385 729 l 543 729 l 581 767 l 581 860 z "},"C":{"ha":964,"x_min":-3,"x_max":876,"o":"m 876 713 l 558 713 l 558 860 l 522 897 l 353 897 l 315 860 l 315 297 l 353 261 l 522 261 l 558 297 l 558 436 l 876 436 l 876 185 l 692 0 l 182 0 l -3 185 l -3 972 l 182 1158 l 692 1158 l 876 972 l 876 713 z "},"D":{"ha":986,"x_min":-3,"x_max":899,"o":"m -3 1158 l 714 1158 l 899 972 l 899 185 l 714 0 l -3 0 l -3 261 l 67 261 l 67 897 l -3 897 l -3 1158 m 385 261 l 543 261 l 581 297 l 581 860 l 543 897 l 385 897 l 385 261 z "},"E":{"ha":929,"x_min":-3,"x_max":849,"o":"m 385 261 l 588 261 l 588 307 l 849 307 l 849 0 l -3 0 l -3 261 l 67 261 l 67 897 l -3 897 l -3 1158 l 849 1158 l 849 851 l 588 851 l 588 897 l 385 897 l 385 708 l 432 708 l 432 754 l 692 754 l 692 403 l 432 403 l 432 449 l 385 449 l 385 261 z "},"F":{"ha":908,"x_min":-3,"x_max":849,"o":"m 432 449 l 385 449 l 385 261 l 518 261 l 518 0 l -3 0 l -3 261 l 67 261 l 67 897 l -3 897 l -3 1158 l 849 1158 l 849 851 l 588 851 l 588 897 l 385 897 l 385 708 l 432 708 l 432 754 l 692 754 l 692 403 l 432 403 l 432 449 z "},"G":{"ha":967,"x_min":-3,"x_max":876,"o":"m 876 643 l 876 185 l 692 0 l 182 0 l -3 185 l -3 972 l 182 1158 l 692 1158 l 876 972 l 876 714 l 558 714 l 558 860 l 522 897 l 353 897 l 315 860 l 315 297 l 353 261 l 522 261 l 558 297 l 558 406 l 471 406 l 471 643 l 876 643 z "},"H":{"ha":1079,"x_min":-3,"x_max":999,"o":"m 611 261 l 611 453 l 385 453 l 385 261 l 454 261 l 454 0 l -3 0 l -3 261 l 67 261 l 67 897 l -3 897 l -3 1158 l 454 1158 l 454 897 l 385 897 l 385 739 l 611 739 l 611 897 l 542 897 l 542 1158 l 999 1158 l 999 897 l 929 897 l 929 261 l 999 261 l 999 0 l 542 0 l 542 261 l 611 261 z "},"I":{"ha":535,"x_min":-3,"x_max":454,"o":"m 454 0 l -3 0 l -3 261 l 67 261 l 67 897 l -3 897 l -3 1158 l 454 1158 l 454 897 l 385 897 l 385 261 l 454 261 l 454 0 z "},"J":{"ha":940,"x_min":-3,"x_max":860,"o":"m 790 899 l 790 186 l 606 0 l 182 0 l -3 185 l -3 465 l 315 465 l 315 299 l 353 261 l 435 261 l 472 297 l 472 897 l 374 897 l 374 1158 l 860 1158 l 860 899 l 790 899 z "},"K":{"ha":1126,"x_min":-3,"x_max":1069,"o":"m 385 261 l 454 261 l 454 0 l -3 0 l -3 261 l 67 261 l 67 897 l -3 897 l -3 1158 l 454 1158 l 454 897 l 385 897 l 385 733 l 550 897 l 519 897 l 519 1158 l 1069 1158 l 1069 899 l 974 899 l 660 583 l 982 261 l 1069 261 l 1069 0 l 519 0 l 519 261 l 551 261 l 439 372 l 385 317 l 385 261 z "},"L":{"ha":915,"x_min":-3,"x_max":853,"o":"m 385 897 l 385 261 l 593 261 l 593 331 l 853 331 l 853 0 l -3 0 l -3 261 l 67 261 l 67 897 l -3 897 l -3 1158 l 454 1158 l 454 897 l 385 897 z "},"M":{"ha":1358,"x_min":-3,"x_max":1278,"o":"m 638 143 l 385 561 l 385 261 l 454 261 l 454 0 l -3 0 l -3 261 l 67 261 l 67 897 l -3 897 l -3 1158 l 369 1158 l 638 710 l 906 1158 l 1278 1158 l 1278 897 l 1208 897 l 1208 261 l 1278 261 l 1278 0 l 821 0 l 821 261 l 890 261 l 890 561 l 638 143 z "},"N":{"ha":1160,"x_min":-3,"x_max":1079,"o":"m 696 0 l 385 518 l 385 261 l 454 261 l 454 0 l -3 0 l -3 261 l 67 261 l 67 897 l -3 897 l -3 1158 l 374 1158 l 692 628 l 692 897 l 622 897 l 622 1158 l 1079 1158 l 1079 897 l 1010 897 l 1010 261 l 1079 261 l 1079 0 l 696 0 z "},"O":{"ha":964,"x_min":-3,"x_max":876,"o":"m -3 972 l 182 1158 l 692 1158 l 876 972 l 876 185 l 692 0 l 182 0 l -3 185 l -3 972 m 558 860 l 522 897 l 353 897 l 315 860 l 315 297 l 353 261 l 522 261 l 558 297 l 558 860 z "},"P":{"ha":986,"x_min":-3,"x_max":899,"o":"m 714 439 l 385 439 l 385 261 l 454 261 l 454 0 l -3 0 l -3 261 l 67 261 l 67 897 l -3 897 l -3 1158 l 714 1158 l 899 972 l 899 624 l 714 439 m 385 700 l 543 700 l 581 736 l 581 860 l 543 897 l 385 897 l 385 700 z "},"Q":{"ha":990,"x_min":-3,"x_max":999,"o":"m -3 972 l 182 1158 l 692 1158 l 876 972 l 876 331 l 999 210 l 822 33 l 774 82 l 692 0 l 182 0 l -3 185 l -3 972 m 558 860 l 522 897 l 353 897 l 315 860 l 315 297 l 353 261 l 522 261 l 558 297 l 369 488 l 544 664 l 558 650 l 558 860 z "},"R":{"ha":1047,"x_min":-3,"x_max":968,"o":"m 385 261 l 454 261 l 454 0 l -3 0 l -3 261 l 67 261 l 67 897 l -3 897 l -3 1158 l 714 1158 l 899 972 l 899 676 l 822 600 l 899 525 l 899 261 l 968 261 l 968 0 l 581 0 l 581 431 l 543 468 l 385 468 l 385 261 m 385 729 l 543 729 l 581 767 l 581 860 l 543 897 l 385 897 l 385 729 z "},"S":{"ha":957,"x_min":-3,"x_max":876,"o":"m 522 446 l 182 446 l -3 631 l -3 972 l 182 1158 l 692 1158 l 876 972 l 876 744 l 558 744 l 558 860 l 522 897 l 353 897 l 315 860 l 315 743 l 353 707 l 692 707 l 876 521 l 876 185 l 692 0 l 182 0 l -3 185 l -3 407 l 315 407 l 315 299 l 353 261 l 522 261 l 558 297 l 558 408 l 522 446 z "},"T":{"ha":1036,"x_min":-3,"x_max":975,"o":"m 975 828 l 715 828 l 715 897 l 646 897 l 646 261 l 715 261 l 715 0 l 257 0 l 257 261 l 328 261 l 328 897 l 257 897 l 257 828 l -3 828 l -3 1158 l 975 1158 l 975 828 z "},"U":{"ha":1096,"x_min":-3,"x_max":1015,"o":"m 946 186 l 761 0 l 251 0 l 67 185 l 67 897 l -3 897 l -3 1158 l 454 1158 l 454 897 l 385 897 l 385 297 l 422 261 l 592 261 l 628 297 l 628 897 l 558 897 l 558 1158 l 1015 1158 l 1015 899 l 946 899 l 946 186 z "},"V":{"ha":1185,"x_min":-3,"x_max":1124,"o":"m 682 897 l 644 897 l 644 1158 l 1124 1158 l 1124 899 l 1019 899 l 807 261 l 867 261 l 867 0 l 251 0 l 251 261 l 301 261 l 90 897 l -3 897 l -3 1158 l 464 1158 l 464 897 l 425 897 l 554 511 l 682 897 z "},"W":{"ha":1883,"x_min":-3,"x_max":1822,"o":"m 818 261 l 856 261 l 856 0 l 264 0 l 264 261 l 301 261 l 90 897 l -3 897 l -3 1158 l 481 1158 l 481 897 l 435 897 l 563 515 l 689 897 l 651 897 l 651 1158 l 1168 1158 l 1168 897 l 1132 897 l 1258 515 l 1386 897 l 1349 897 l 1349 1158 l 1822 1158 l 1822 899 l 1731 899 l 1519 261 l 1557 261 l 1557 0 l 965 0 l 965 261 l 1003 261 l 911 539 l 818 261 z "},"X":{"ha":1326,"x_min":-3,"x_max":1265,"o":"m 640 400 l 501 261 l 547 261 l 547 0 l -3 0 l -3 261 l 106 261 l 425 579 l 106 897 l -3 897 l -3 1158 l 547 1158 l 547 897 l 501 897 l 640 758 l 779 897 l 732 897 l 732 1158 l 1265 1158 l 1265 899 l 1174 899 l 856 579 l 1174 261 l 1265 261 l 1265 0 l 732 0 l 732 261 l 779 261 l 640 400 z "},"Y":{"ha":1326,"x_min":-3,"x_max":1265,"o":"m 799 522 l 799 261 l 868 261 l 868 0 l 411 0 l 411 261 l 482 261 l 482 522 l 106 897 l -3 897 l -3 1158 l 549 1158 l 549 897 l 501 897 l 640 758 l 779 897 l 732 897 l 732 1158 l 1265 1158 l 1265 899 l 1174 899 l 799 522 z "},"Z":{"ha":943,"x_min":-3,"x_max":861,"o":"m 411 261 l 601 261 l 601 331 l 861 331 l 861 0 l -3 0 l -3 219 l 449 897 l 257 897 l 257 828 l -3 828 l -3 1158 l 861 1158 l 861 938 l 411 261 z "},"a":{"ha":981,"x_min":-3,"x_max":921,"o":"m 708 926 l 708 718 l 661 718 l 865 208 l 921 208 l 921 0 l 564 0 l 564 208 l 596 208 l 582 251 l 336 251 l 321 208 l 351 208 l 351 0 l -3 0 l -3 208 l 53 208 l 257 718 l 217 718 l 217 926 l 708 926 m 399 429 l 518 429 l 458 574 l 399 429 z "},"b":{"ha":797,"x_min":-3,"x_max":718,"o":"m 718 419 l 718 149 l 571 0 l -3 0 l -3 208 l 53 208 l 53 718 l -3 718 l -3 926 l 571 926 l 718 778 l 718 540 l 657 479 l 718 419 m 464 344 l 435 375 l 307 375 l 307 208 l 435 208 l 464 239 l 464 344 m 464 688 l 435 718 l 307 718 l 307 583 l 435 583 l 464 614 l 464 688 z "},"c":{"ha":779,"x_min":-3,"x_max":701,"o":"m 701 571 l 447 571 l 447 688 l 417 718 l 282 718 l 251 688 l 251 239 l 282 208 l 417 208 l 447 239 l 447 350 l 701 350 l 701 149 l 553 0 l 146 0 l -3 149 l -3 778 l 146 926 l 553 926 l 701 778 l 701 571 z "},"d":{"ha":799,"x_min":-3,"x_max":718,"o":"m -3 926 l 571 926 l 718 778 l 718 149 l 571 0 l -3 0 l -3 208 l 53 208 l 53 718 l -3 718 l -3 926 m 307 208 l 435 208 l 464 239 l 464 688 l 435 718 l 307 718 l 307 208 z "},"e":{"ha":758,"x_min":-3,"x_max":678,"o":"m 307 208 l 469 208 l 469 246 l 678 246 l 678 0 l -3 0 l -3 208 l 53 208 l 53 718 l -3 718 l -3 926 l 678 926 l 678 681 l 469 681 l 469 718 l 307 718 l 307 567 l 344 567 l 344 604 l 553 604 l 553 321 l 344 321 l 344 358 l 307 358 l 307 208 z "},"f":{"ha":739,"x_min":-3,"x_max":678,"o":"m 344 358 l 307 358 l 307 208 l 414 208 l 414 0 l -3 0 l -3 208 l 53 208 l 53 718 l -3 718 l -3 926 l 678 926 l 678 681 l 469 681 l 469 718 l 307 718 l 307 567 l 344 567 l 344 604 l 553 604 l 553 321 l 344 321 l 344 358 z "},"g":{"ha":782,"x_min":-3,"x_max":701,"o":"m 701 515 l 701 149 l 553 0 l 146 0 l -3 149 l -3 778 l 146 926 l 553 926 l 701 778 l 701 572 l 446 572 l 446 688 l 417 718 l 282 718 l 251 688 l 251 239 l 282 208 l 417 208 l 447 239 l 447 325 l 376 325 l 376 515 l 701 515 z "},"h":{"ha":879,"x_min":-3,"x_max":799,"o":"m 489 208 l 489 363 l 307 363 l 307 208 l 363 208 l 363 0 l -3 0 l -3 208 l 53 208 l 53 718 l -3 718 l -3 926 l 363 926 l 363 718 l 307 718 l 307 590 l 489 590 l 489 718 l 432 718 l 432 926 l 799 926 l 799 718 l 743 718 l 743 208 l 799 208 l 799 0 l 432 0 l 432 208 l 489 208 z "},"i":{"ha":443,"x_min":-3,"x_max":363,"o":"m 363 0 l -3 0 l -3 208 l 53 208 l 53 718 l -3 718 l -3 926 l 363 926 l 363 718 l 307 718 l 307 208 l 363 208 l 363 0 z "},"j":{"ha":768,"x_min":-3,"x_max":688,"o":"m 632 718 l 632 149 l 483 0 l 146 0 l -3 149 l -3 372 l 251 372 l 251 239 l 282 208 l 347 208 l 378 239 l 378 718 l 299 718 l 299 926 l 688 926 l 688 718 l 632 718 z "},"k":{"ha":935,"x_min":-3,"x_max":856,"o":"m 307 208 l 363 208 l 363 0 l -3 0 l -3 208 l 53 208 l 53 718 l -3 718 l -3 926 l 363 926 l 363 718 l 307 718 l 307 586 l 439 718 l 415 718 l 415 926 l 856 926 l 856 718 l 779 718 l 528 467 l 786 208 l 856 208 l 856 0 l 415 0 l 415 208 l 440 208 l 351 297 l 307 254 l 307 208 z "},"l":{"ha":743,"x_min":-3,"x_max":682,"o":"m 307 718 l 307 208 l 474 208 l 474 264 l 682 264 l 682 0 l -3 0 l -3 208 l 53 208 l 53 718 l -3 718 l -3 926 l 363 926 l 363 718 l 307 718 z "},"m":{"ha":1101,"x_min":-3,"x_max":1022,"o":"m 508 114 l 307 449 l 307 208 l 363 208 l 363 0 l -3 0 l -3 208 l 53 208 l 53 718 l -3 718 l -3 926 l 294 926 l 508 567 l 724 926 l 1022 926 l 1022 718 l 965 718 l 965 208 l 1022 208 l 1022 0 l 656 0 l 656 208 l 711 208 l 711 449 l 508 114 z "},"n":{"ha":943,"x_min":-3,"x_max":863,"o":"m 557 0 l 307 414 l 307 208 l 363 208 l 363 0 l -3 0 l -3 208 l 53 208 l 53 718 l -3 718 l -3 926 l 299 926 l 553 503 l 553 718 l 497 718 l 497 926 l 863 926 l 863 718 l 807 718 l 807 208 l 863 208 l 863 0 l 557 0 z "},"o":{"ha":782,"x_min":-3,"x_max":701,"o":"m -3 778 l 146 926 l 553 926 l 701 778 l 701 149 l 553 0 l 146 0 l -3 149 l -3 778 m 447 688 l 417 718 l 282 718 l 251 688 l 251 239 l 282 208 l 417 208 l 447 239 l 447 688 z "},"p":{"ha":817,"x_min":-3,"x_max":718,"o":"m 571 351 l 307 351 l 307 208 l 363 208 l 363 0 l -3 0 l -3 208 l 53 208 l 53 718 l -3 718 l -3 926 l 571 926 l 718 778 l 718 499 l 571 351 m 307 560 l 435 560 l 464 589 l 464 688 l 435 718 l 307 718 l 307 560 z "},"q":{"ha":797,"x_min":-3,"x_max":799,"o":"m -3 778 l 146 926 l 553 926 l 701 778 l 701 265 l 799 168 l 657 26 l 619 67 l 553 0 l 146 0 l -3 149 l -3 778 m 447 688 l 417 718 l 282 718 l 251 688 l 251 239 l 282 208 l 417 208 l 447 239 l 294 390 l 435 531 l 447 519 l 447 688 z "},"r":{"ha":853,"x_min":-3,"x_max":774,"o":"m 307 208 l 363 208 l 363 0 l -3 0 l -3 208 l 53 208 l 53 718 l -3 718 l -3 926 l 571 926 l 718 778 l 718 540 l 657 479 l 718 419 l 718 208 l 774 208 l 774 0 l 464 0 l 464 344 l 435 375 l 307 375 l 307 208 m 307 583 l 435 583 l 464 614 l 464 688 l 435 718 l 307 718 l 307 583 z "},"s":{"ha":782,"x_min":-3,"x_max":701,"o":"m 418 357 l 147 357 l -3 504 l -3 778 l 146 926 l 553 926 l 701 778 l 701 594 l 447 594 l 447 688 l 417 718 l 282 718 l 251 688 l 251 594 l 282 565 l 553 565 l 701 417 l 701 149 l 553 0 l 146 0 l -3 149 l -3 326 l 251 326 l 251 239 l 282 208 l 417 208 l 447 239 l 447 326 l 418 357 z "},"t":{"ha":839,"x_min":-3,"x_max":779,"o":"m 779 661 l 571 661 l 571 717 l 514 718 l 514 210 l 571 210 l 571 1 l 206 1 l 206 210 l 261 210 l 261 717 l 206 717 l 206 661 l -3 661 l -3 926 l 779 926 l 779 661 z "},"u":{"ha":874,"x_min":-3,"x_max":813,"o":"m 757 149 l 608 0 l 201 0 l 53 149 l 53 718 l -3 718 l -3 926 l 363 926 l 363 718 l 307 718 l 307 239 l 338 208 l 472 208 l 503 239 l 503 718 l 446 718 l 446 926 l 813 926 l 813 718 l 757 718 l 757 149 z "},"v":{"ha":958,"x_min":-3,"x_max":897,"o":"m 546 718 l 515 718 l 515 926 l 897 926 l 897 718 l 814 718 l 646 208 l 693 208 l 693 0 l 200 0 l 200 208 l 240 208 l 71 718 l -3 718 l -3 926 l 369 926 l 369 718 l 340 718 l 443 410 l 546 718 z "},"w":{"ha":1518,"x_min":-3,"x_max":1458,"o":"m 654 208 l 685 208 l 685 0 l 210 0 l 210 208 l 240 208 l 71 718 l -3 718 l -3 926 l 383 926 l 383 718 l 347 718 l 449 413 l 550 718 l 521 718 l 521 926 l 935 926 l 935 718 l 904 718 l 1007 413 l 1108 718 l 1078 718 l 1078 926 l 1458 926 l 1458 718 l 1383 718 l 1215 208 l 1244 208 l 1244 0 l 772 0 l 772 208 l 801 208 l 728 431 l 654 208 z "},"x":{"ha":1085,"x_min":-3,"x_max":1024,"o":"m 517 318 l 404 208 l 443 208 l 443 0 l -3 0 l -3 208 l 85 208 l 343 461 l 85 714 l -3 714 l -3 922 l 443 922 l 443 714 l 404 714 l 517 603 l 631 714 l 592 714 l 592 922 l 1024 922 l 1024 715 l 950 715 l 692 461 l 950 208 l 1024 208 l 1024 0 l 592 0 l 592 208 l 631 208 l 517 318 z "},"y":{"ha":1071,"x_min":-3,"x_max":1011,"o":"m 638 418 l 638 210 l 693 210 l 693 1 l 328 1 l 328 210 l 385 210 l 385 418 l 85 718 l -3 718 l -3 926 l 439 926 l 439 718 l 401 718 l 511 607 l 621 718 l 585 718 l 585 926 l 1011 926 l 1011 718 l 938 718 l 638 418 z "},"z":{"ha":769,"x_min":-3,"x_max":689,"o":"m 328 208 l 481 208 l 481 264 l 689 264 l 689 0 l -3 0 l -3 176 l 358 718 l 206 718 l 206 663 l -3 663 l -3 926 l 689 926 l 689 750 l 328 208 z "}," ":{"ha":397,"x_min":0,"x_max":0,"o":""},"ÿ":{"ha":417,"x_min":69,"x_max":372,"o":"m 278 1085 l 206 865 q 189 850 201 850 q 178 863 178 850 l 169 1007 q 183 1019 169 1019 q 196 1007 196 1019 l 201 940 l 251 1092 q 264 1101 253 1101 q 278 1085 282 1101 m 363 836 q 332 826 351 826 q 293 828 308 828 q 261 825 286 828 q 247 827 251 822 q 246 842 243 832 q 284 896 254 872 q 321 939 314 919 q 324 956 324 950 q 319 966 324 964 q 303 968 314 968 q 288 965 293 968 q 285 956 282 963 q 283 942 289 949 q 271 935 278 935 q 260 942 263 935 q 258 953 258 949 q 275 982 258 971 q 313 993 292 993 q 338 984 325 993 q 351 956 351 975 q 347 932 351 951 q 316 890 343 913 q 281 853 289 867 q 302 852 292 853 q 322 851 313 851 q 342 856 339 851 q 361 856 350 867 q 363 836 372 846 m 142 875 l 83 867 q 69 879 69 865 l 82 1039 q 94 1050 82 1050 q 110 1035 110 1050 l 97 896 l 139 900 q 154 888 154 903 q 142 875 154 875 z "},"‘":{"ha":400,"x_min":-3,"x_max":281,"o":"m 207 897 l 207 688 l -3 897 l -3 1158 l 281 1158 l 281 899 l 207 897 z "},"’":{"ha":400,"x_min":-3,"x_max":281,"o":"m -3 897 l -3 1158 l 281 1158 l 281 899 l 71 688 l 71 897 l -3 897 z "},"“":{"ha":713,"x_min":-3,"x_max":639,"o":"m 564 897 l 564 688 l 356 897 l 356 1158 l 639 1158 l 639 899 l 564 897 m 207 897 l 207 688 l -3 897 l -3 1158 l 281 1158 l 281 899 l 207 897 z "},"”":{"ha":713,"x_min":-3,"x_max":639,"o":"m -3 897 l -3 1158 l 281 1158 l 281 899 l 71 688 l 71 897 l -3 897 m 356 897 l 356 1158 l 639 1158 l 639 899 l 429 688 l 429 897 l 356 897 z "},"•":{"ha":397,"x_min":0,"x_max":0,"o":""},"◼":{"ha":924,"x_min":0,"x_max":924,"o":"m 0 924 l 924 924 l 924 0 l 0 0 l 0 924 z "}}}
